<?xml version="1.0" encoding="UTF-8" standalone="no"?>
<!DOCTYPE svg PUBLIC "-//W3C//DTD SVG 1.1//EN"
 "http://www.w3.org/Graphics/SVG/1.1/DTD/svg11.dtd">
<!-- Generated by graphviz version 2.43.0 (0)
 -->
<!-- Pages: 1 -->
<svg width="1666pt" height="1370pt"
 viewBox="0.00 0.00 1665.80 1370.06" xmlns="http://www.w3.org/2000/svg" xmlns:xlink="http://www.w3.org/1999/xlink">
<g id="graph0" class="graph" transform="scale(1 1) rotate(0) translate(4 1366.06)">
<polygon fill="white" stroke="transparent" points="-4,4 -4,-1366.06 1661.8,-1366.06 1661.8,4 -4,4"/>
<!-- 0 -->
<g id="node1" class="node">
<title>0</title>
<ellipse fill="none" stroke="black" cx="572.94" cy="-1344.06" rx="52" ry="18"/>
<text text-anchor="middle" x="572.94" y="-1340.36" font-family="Times,serif" font-size="14.00">Vowel /e/</text>
</g>
<!-- 15.0 -->
<g id="node2" class="node">
<title>15.0</title>
<ellipse fill="none" stroke="black" cx="659.84" cy="-1168.36" rx="31.4" ry="18"/>
<text text-anchor="middle" x="659.84" y="-1164.66" font-family="Times,serif" font-size="14.00">15.0</text>
</g>
<!-- 0&#45;&#45;15.0 -->
<g id="edge1" class="edge">
<title>0&#45;&#45;15.0</title>
<path fill="none" stroke="black" d="M581.75,-1326.26C598.49,-1292.36 634.7,-1219.16 651.26,-1185.66"/>
</g>
<!-- 1 -->
<g id="node3" class="node">
<title>1</title>
<ellipse fill="none" stroke="black" cx="731.63" cy="-725.37" rx="65.79" ry="18"/>
<text text-anchor="middle" x="731.63" y="-721.67" font-family="Times,serif" font-size="14.00">Unspecified</text>
</g>
<!-- 13.0 -->
<g id="node4" class="node">
<title>13.0</title>
<ellipse fill="none" stroke="black" cx="805.71" cy="-889.26" rx="31.4" ry="18"/>
<text text-anchor="middle" x="805.71" y="-885.56" font-family="Times,serif" font-size="14.00">13.0</text>
</g>
<!-- 1&#45;&#45;13.0 -->
<g id="edge2" class="edge">
<title>1&#45;&#45;13.0</title>
<path fill="none" stroke="black" d="M739.84,-743.54C754.16,-775.21 783.51,-840.14 797.69,-871.51"/>
</g>
<!-- 17.0 -->
<g id="node5" class="node">
<title>17.0</title>
<ellipse fill="none" stroke="black" cx="900.63" cy="-894.96" rx="31.4" ry="18"/>
<text text-anchor="middle" x="900.63" y="-891.26" font-family="Times,serif" font-size="14.00">17.0</text>
</g>
<!-- 1&#45;&#45;17.0 -->
<g id="edge3" class="edge">
<title>1&#45;&#45;17.0</title>
<path fill="none" stroke="black" d="M749.08,-742.88C782.14,-776.06 853.41,-847.58 885,-879.28"/>
</g>
<!-- 12.0 -->
<g id="node6" class="node">
<title>12.0</title>
<ellipse fill="none" stroke="black" cx="785.57" cy="-538.56" rx="31.4" ry="18"/>
<text text-anchor="middle" x="785.57" y="-534.86" font-family="Times,serif" font-size="14.00">12.0</text>
</g>
<!-- 1&#45;&#45;12.0 -->
<g id="edge4" class="edge">
<title>1&#45;&#45;12.0</title>
<path fill="none" stroke="black" d="M736.9,-707.12C747.27,-671.22 770.19,-591.85 780.44,-556.34"/>
</g>
<!-- 14.0 -->
<g id="node7" class="node">
<title>14.0</title>
<ellipse fill="none" stroke="black" cx="576.59" cy="-819.14" rx="31.4" ry="18"/>
<text text-anchor="middle" x="576.59" y="-815.44" font-family="Times,serif" font-size="14.00">14.0</text>
</g>
<!-- 1&#45;&#45;14.0 -->
<g id="edge5" class="edge">
<title>1&#45;&#45;14.0</title>
<path fill="none" stroke="black" d="M704.27,-741.92C674.02,-760.22 625.91,-789.31 598.19,-806.08"/>
</g>
<!-- 2 -->
<g id="node8" class="node">
<title>2</title>
<ellipse fill="none" stroke="black" cx="968.12" cy="-761.53" rx="48.19" ry="18"/>
<text text-anchor="middle" x="968.12" y="-757.83" font-family="Times,serif" font-size="14.00">/pataka/</text>
</g>
<!-- 2&#45;&#45;13.0 -->
<g id="edge6" class="edge">
<title>2&#45;&#45;13.0</title>
<path fill="none" stroke="black" d="M947.22,-777.96C915.35,-803.03 855.09,-850.42 824.52,-874.47"/>
</g>
<!-- 2&#45;&#45;17.0 -->
<g id="edge7" class="edge">
<title>2&#45;&#45;17.0</title>
<path fill="none" stroke="black" d="M959.16,-779.25C946.18,-804.91 922.29,-852.13 909.41,-877.59"/>
</g>
<!-- 3 -->
<g id="node9" class="node">
<title>3</title>
<ellipse fill="none" stroke="black" cx="861.62" cy="-1081.46" rx="65.79" ry="18"/>
<text text-anchor="middle" x="861.62" y="-1077.76" font-family="Times,serif" font-size="14.00">Sentence(s)</text>
</g>
<!-- 3&#45;&#45;15.0 -->
<g id="edge8" class="edge">
<title>3&#45;&#45;15.0</title>
<path fill="none" stroke="black" d="M826.01,-1096.86C785.51,-1114.26 720.4,-1142.26 684.9,-1157.56"/>
</g>
<!-- 3&#45;&#45;13.0 -->
<g id="edge9" class="edge">
<title>3&#45;&#45;13.0</title>
<path fill="none" stroke="black" d="M856.36,-1063.46C845.68,-1026.66 821.55,-943.73 810.92,-907.16"/>
</g>
<!-- 3&#45;&#45;17.0 -->
<g id="edge10" class="edge">
<title>3&#45;&#45;17.0</title>
<path fill="none" stroke="black" d="M865.43,-1063.26C872.91,-1027.56 889.42,-948.58 896.86,-912.99"/>
</g>
<!-- 4 -->
<g id="node10" class="node">
<title>4</title>
<ellipse fill="none" stroke="black" cx="851.34" cy="-681.33" rx="32.5" ry="18"/>
<text text-anchor="middle" x="851.34" y="-677.63" font-family="Times,serif" font-size="14.00">EGG</text>
</g>
<!-- 4&#45;&#45;13.0 -->
<g id="edge11" class="edge">
<title>4&#45;&#45;13.0</title>
<path fill="none" stroke="black" d="M847.37,-699.42C838.72,-738.84 818.25,-832.11 809.64,-871.36"/>
</g>
<!-- 4&#45;&#45;12.0 -->
<g id="edge12" class="edge">
<title>4&#45;&#45;12.0</title>
<path fill="none" stroke="black" d="M843.28,-663.82C830.65,-636.42 806.37,-583.7 793.7,-556.21"/>
</g>
<!-- 5 -->
<g id="node11" class="node">
<title>5</title>
<ellipse fill="none" stroke="black" cx="717.02" cy="-971.93" rx="52" ry="18"/>
<text text-anchor="middle" x="717.02" y="-968.23" font-family="Times,serif" font-size="14.00">Vowel /a/</text>
</g>
<!-- 5&#45;&#45;15.0 -->
<g id="edge13" class="edge">
<title>5&#45;&#45;15.0</title>
<path fill="none" stroke="black" d="M711.75,-990.06C700.82,-1027.56 675.86,-1113.36 665.02,-1150.56"/>
</g>
<!-- 5&#45;&#45;13.0 -->
<g id="edge14" class="edge">
<title>5&#45;&#45;13.0</title>
<path fill="none" stroke="black" d="M735.4,-954.8C751.23,-940.05 773.87,-918.94 789.15,-904.69"/>
</g>
<!-- 5&#45;&#45;17.0 -->
<g id="edge15" class="edge">
<title>5&#45;&#45;17.0</title>
<path fill="none" stroke="black" d="M750.27,-957.99C786.23,-942.92 842.77,-919.22 875.3,-905.58"/>
</g>
<!-- 5&#45;&#45;14.0 -->
<g id="edge16" class="edge">
<title>5&#45;&#45;14.0</title>
<path fill="none" stroke="black" d="M701.19,-954.7C673.79,-924.89 617.92,-864.1 591.31,-835.15"/>
</g>
<!-- 16.0 -->
<g id="node12" class="node">
<title>16.0</title>
<ellipse fill="none" stroke="black" cx="579.73" cy="-1115.46" rx="31.4" ry="18"/>
<text text-anchor="middle" x="579.73" y="-1111.76" font-family="Times,serif" font-size="14.00">16.0</text>
</g>
<!-- 5&#45;&#45;16.0 -->
<g id="edge17" class="edge">
<title>5&#45;&#45;16.0</title>
<path fill="none" stroke="black" d="M700.46,-989.25C673.65,-1017.26 621.11,-1072.26 595.09,-1099.46"/>
</g>
<!-- 6 -->
<g id="node13" class="node">
<title>6</title>
<ellipse fill="none" stroke="black" cx="1070.06" cy="-839.44" rx="91" ry="18"/>
<text text-anchor="middle" x="1070.06" y="-835.74" font-family="Times,serif" font-size="14.00">Rainbow Passage</text>
</g>
<!-- 6&#45;&#45;13.0 -->
<g id="edge18" class="edge">
<title>6&#45;&#45;13.0</title>
<path fill="none" stroke="black" d="M1004.06,-851.88C950.07,-862.06 876.24,-875.97 835.6,-883.63"/>
</g>
<!-- 6&#45;&#45;17.0 -->
<g id="edge19" class="edge">
<title>6&#45;&#45;17.0</title>
<path fill="none" stroke="black" d="M1022.86,-854.91C992.33,-864.92 953.62,-877.6 928.03,-885.98"/>
</g>
<!-- 7 -->
<g id="node14" class="node">
<title>7</title>
<ellipse fill="none" stroke="black" cx="834.26" cy="-1182.66" rx="120.48" ry="18"/>
<text text-anchor="middle" x="834.26" y="-1178.96" font-family="Times,serif" font-size="14.00">Demographic questions</text>
</g>
<!-- 7&#45;&#45;15.0 -->
<g id="edge20" class="edge">
<title>7&#45;&#45;15.0</title>
<path fill="none" stroke="black" d="M728.52,-1173.96C714.93,-1172.86 701.97,-1171.76 691.04,-1170.96"/>
</g>
<!-- 7&#45;&#45;13.0 -->
<g id="edge21" class="edge">
<title>7&#45;&#45;13.0</title>
<path fill="none" stroke="black" d="M832.47,-1164.26C827.35,-1111.56 812.62,-960.28 807.49,-907.6"/>
</g>
<!-- 7&#45;&#45;16.0 -->
<g id="edge22" class="edge">
<title>7&#45;&#45;16.0</title>
<path fill="none" stroke="black" d="M774.9,-1166.96C722.46,-1153.16 648.26,-1133.56 608.14,-1122.96"/>
</g>
<!-- 8 -->
<g id="node15" class="node">
<title>8</title>
<ellipse fill="none" stroke="black" cx="1128.26" cy="-962.72" rx="82" ry="18"/>
<text text-anchor="middle" x="1128.26" y="-959.02" font-family="Times,serif" font-size="14.00">Repeated Word</text>
</g>
<!-- 8&#45;&#45;17.0 -->
<g id="edge23" class="edge">
<title>8&#45;&#45;17.0</title>
<path fill="none" stroke="black" d="M1079.36,-948.18C1033.46,-934.5 966.17,-914.47 928.62,-903.3"/>
</g>
<!-- 9 -->
<g id="node16" class="node">
<title>9</title>
<ellipse fill="none" stroke="black" cx="847.57" cy="-838.73" rx="120.48" ry="18"/>
<text text-anchor="middle" x="847.57" y="-835.03" font-family="Times,serif" font-size="14.00">Multi&#45;sentence passage</text>
</g>
<!-- 9&#45;&#45;13.0 -->
<g id="edge24" class="edge">
<title>9&#45;&#45;13.0</title>
<path fill="none" stroke="black" d="M832.69,-856.69C828.37,-861.91 823.67,-867.58 819.42,-872.71"/>
</g>
<!-- 9&#45;&#45;17.0 -->
<g id="edge25" class="edge">
<title>9&#45;&#45;17.0</title>
<path fill="none" stroke="black" d="M864.65,-856.83C871.31,-863.9 878.89,-871.93 885.37,-878.79"/>
</g>
<!-- 10 -->
<g id="node17" class="node">
<title>10</title>
<ellipse fill="none" stroke="black" cx="590.55" cy="-981.5" rx="50.09" ry="18"/>
<text text-anchor="middle" x="590.55" y="-977.8" font-family="Times,serif" font-size="14.00">Vowel /i/</text>
</g>
<!-- 10&#45;&#45;15.0 -->
<g id="edge26" class="edge">
<title>10&#45;&#45;15.0</title>
<path fill="none" stroke="black" d="M597.2,-999.42C610.44,-1035.16 639.99,-1114.86 653.21,-1150.46"/>
</g>
<!-- 10&#45;&#45;13.0 -->
<g id="edge27" class="edge">
<title>10&#45;&#45;13.0</title>
<path fill="none" stroke="black" d="M622.76,-967.69C665.79,-949.25 741.13,-916.95 780.35,-900.13"/>
</g>
<!-- 10&#45;&#45;16.0 -->
<g id="edge28" class="edge">
<title>10&#45;&#45;16.0</title>
<path fill="none" stroke="black" d="M589.09,-999.57C587.03,-1025.16 583.27,-1071.66 581.2,-1097.26"/>
</g>
<!-- 11 -->
<g id="node18" class="node">
<title>11</title>
<ellipse fill="none" stroke="black" cx="719.93" cy="-1064.76" rx="52.79" ry="18"/>
<text text-anchor="middle" x="719.93" y="-1061.06" font-family="Times,serif" font-size="14.00">Vowel /u/</text>
</g>
<!-- 11&#45;&#45;15.0 -->
<g id="edge29" class="edge">
<title>11&#45;&#45;15.0</title>
<path fill="none" stroke="black" d="M709.46,-1082.76C698.3,-1102.06 680.75,-1132.36 669.78,-1151.16"/>
</g>
<!-- 11&#45;&#45;13.0 -->
<g id="edge30" class="edge">
<title>11&#45;&#45;13.0</title>
<path fill="none" stroke="black" d="M728.63,-1046.96C745.11,-1013.26 780.71,-940.4 797.12,-906.84"/>
</g>
<!-- 11&#45;&#45;16.0 -->
<g id="edge31" class="edge">
<title>11&#45;&#45;16.0</title>
<path fill="none" stroke="black" d="M683.46,-1077.96C659.28,-1086.66 628.11,-1097.96 606.28,-1105.86"/>
</g>
<!-- 12 -->
<g id="node19" class="node">
<title>12</title>
<ellipse fill="none" stroke="black" cx="1179.46" cy="-463.92" rx="65.79" ry="18"/>
<text text-anchor="middle" x="1179.46" y="-460.22" font-family="Times,serif" font-size="14.00">Unspecified</text>
</g>
<!-- 20.0 -->
<g id="node20" class="node">
<title>20.0</title>
<ellipse fill="none" stroke="black" cx="1185.56" cy="-255.02" rx="31.4" ry="18"/>
<text text-anchor="middle" x="1185.56" y="-251.32" font-family="Times,serif" font-size="14.00">20.0</text>
</g>
<!-- 12&#45;&#45;20.0 -->
<g id="edge32" class="edge">
<title>12&#45;&#45;20.0</title>
<path fill="none" stroke="black" d="M1179.96,-445.75C1181.16,-406.24 1183.86,-312.91 1185.06,-273.3"/>
</g>
<!-- 24.0 -->
<g id="node21" class="node">
<title>24.0</title>
<ellipse fill="none" stroke="black" cx="992.01" cy="-592.35" rx="31.4" ry="18"/>
<text text-anchor="middle" x="992.01" y="-588.65" font-family="Times,serif" font-size="14.00">24.0</text>
</g>
<!-- 12&#45;&#45;24.0 -->
<g id="edge33" class="edge">
<title>12&#45;&#45;24.0</title>
<path fill="none" stroke="black" d="M1154.96,-480.71C1117.56,-506.35 1046.86,-554.76 1012.26,-578.5"/>
</g>
<!-- 19.0 -->
<g id="node22" class="node">
<title>19.0</title>
<ellipse fill="none" stroke="black" cx="1068.26" cy="-358.34" rx="31.4" ry="18"/>
<text text-anchor="middle" x="1068.26" y="-354.64" font-family="Times,serif" font-size="14.00">19.0</text>
</g>
<!-- 12&#45;&#45;19.0 -->
<g id="edge34" class="edge">
<title>12&#45;&#45;19.0</title>
<path fill="none" stroke="black" d="M1161.06,-446.49C1139.76,-426.22 1104.86,-393.09 1084.46,-373.74"/>
</g>
<!-- 21.0 -->
<g id="node23" class="node">
<title>21.0</title>
<ellipse fill="none" stroke="black" cx="1388.26" cy="-437.74" rx="31.4" ry="18"/>
<text text-anchor="middle" x="1388.26" y="-434.04" font-family="Times,serif" font-size="14.00">21.0</text>
</g>
<!-- 12&#45;&#45;21.0 -->
<g id="edge35" class="edge">
<title>12&#45;&#45;21.0</title>
<path fill="none" stroke="black" d="M1239.26,-456.42C1277.96,-451.57 1326.66,-445.46 1357.66,-441.57"/>
</g>
<!-- 26.0 -->
<g id="node24" class="node">
<title>26.0</title>
<ellipse fill="none" stroke="black" cx="1357.56" cy="-511.47" rx="31.4" ry="18"/>
<text text-anchor="middle" x="1357.56" y="-507.77" font-family="Times,serif" font-size="14.00">26.0</text>
</g>
<!-- 12&#45;&#45;26.0 -->
<g id="edge36" class="edge">
<title>12&#45;&#45;26.0</title>
<path fill="none" stroke="black" d="M1226.66,-476.54C1259.26,-485.24 1301.46,-496.51 1328.96,-503.86"/>
</g>
<!-- 13 -->
<g id="node25" class="node">
<title>13</title>
<ellipse fill="none" stroke="black" cx="1280.96" cy="-345.01" rx="89.08" ry="18"/>
<text text-anchor="middle" x="1280.96" y="-341.31" font-family="Times,serif" font-size="14.00">Major Imbalance</text>
</g>
<!-- 13&#45;&#45;20.0 -->
<g id="edge37" class="edge">
<title>13&#45;&#45;20.0</title>
<path fill="none" stroke="black" d="M1262.06,-327.23C1244.66,-310.74 1218.86,-286.43 1202.16,-270.66"/>
</g>
<!-- 13&#45;&#45;19.0 -->
<g id="edge38" class="edge">
<title>13&#45;&#45;19.0</title>
<path fill="none" stroke="black" d="M1195.66,-350.36C1161.66,-352.49 1124.76,-354.81 1099.46,-356.39"/>
</g>
<!-- 13&#45;&#45;21.0 -->
<g id="edge39" class="edge">
<title>13&#45;&#45;21.0</title>
<path fill="none" stroke="black" d="M1301.36,-362.67C1321.46,-380.01 1351.76,-406.18 1370.76,-422.6"/>
</g>
<!-- 13&#45;&#45;26.0 -->
<g id="edge40" class="edge">
<title>13&#45;&#45;26.0</title>
<path fill="none" stroke="black" d="M1289.26,-363.14C1304.06,-395.33 1334.76,-462.06 1349.46,-493.87"/>
</g>
<!-- 27.0 -->
<g id="node26" class="node">
<title>27.0</title>
<ellipse fill="none" stroke="black" cx="1431.66" cy="-496.64" rx="31.4" ry="18"/>
<text text-anchor="middle" x="1431.66" y="-492.94" font-family="Times,serif" font-size="14.00">27.0</text>
</g>
<!-- 13&#45;&#45;27.0 -->
<g id="edge41" class="edge">
<title>13&#45;&#45;27.0</title>
<path fill="none" stroke="black" d="M1298.56,-362.7C1328.16,-392.55 1387.66,-452.41 1415.96,-480.89"/>
</g>
<!-- 18.0 -->
<g id="node27" class="node">
<title>18.0</title>
<ellipse fill="none" stroke="black" cx="1404.16" cy="-575.1" rx="31.4" ry="18"/>
<text text-anchor="middle" x="1404.16" y="-571.4" font-family="Times,serif" font-size="14.00">18.0</text>
</g>
<!-- 13&#45;&#45;18.0 -->
<g id="edge42" class="edge">
<title>13&#45;&#45;18.0</title>
<path fill="none" stroke="black" d="M1290.56,-363.07C1313.76,-406.29 1372.16,-515.27 1394.86,-557.76"/>
</g>
<!-- 23.0 -->
<g id="node28" class="node">
<title>23.0</title>
<ellipse fill="none" stroke="black" cx="1208.56" cy="-97.91" rx="31.4" ry="18"/>
<text text-anchor="middle" x="1208.56" y="-94.21" font-family="Times,serif" font-size="14.00">23.0</text>
</g>
<!-- 13&#45;&#45;23.0 -->
<g id="edge43" class="edge">
<title>13&#45;&#45;23.0</title>
<path fill="none" stroke="black" d="M1275.66,-326.84C1262.16,-281.04 1227.16,-161.25 1213.86,-115.77"/>
</g>
<!-- 25.0 -->
<g id="node29" class="node">
<title>25.0</title>
<ellipse fill="none" stroke="black" cx="1501.46" cy="-219.36" rx="31.4" ry="18"/>
<text text-anchor="middle" x="1501.46" y="-215.66" font-family="Times,serif" font-size="14.00">25.0</text>
</g>
<!-- 13&#45;&#45;25.0 -->
<g id="edge44" class="edge">
<title>13&#45;&#45;25.0</title>
<path fill="none" stroke="black" d="M1311.16,-327.81C1355.96,-302.26 1439.06,-254.9 1478.96,-232.18"/>
</g>
<!-- 22.0 -->
<g id="node30" class="node">
<title>22.0</title>
<ellipse fill="none" stroke="black" cx="1141.76" cy="-365.71" rx="31.4" ry="18"/>
<text text-anchor="middle" x="1141.76" y="-362.01" font-family="Times,serif" font-size="14.00">22.0</text>
</g>
<!-- 13&#45;&#45;22.0 -->
<g id="edge45" class="edge">
<title>13&#45;&#45;22.0</title>
<path fill="none" stroke="black" d="M1208.96,-355.73C1195.96,-357.66 1183.06,-359.58 1172.06,-361.21"/>
</g>
<!-- 14 -->
<g id="node31" class="node">
<title>14</title>
<ellipse fill="none" stroke="black" cx="1560.86" cy="-592.94" rx="89.08" ry="18"/>
<text text-anchor="middle" x="1560.86" y="-589.24" font-family="Times,serif" font-size="14.00">Minor Imbalance</text>
</g>
<!-- 14&#45;&#45;21.0 -->
<g id="edge46" class="edge">
<title>14&#45;&#45;21.0</title>
<path fill="none" stroke="black" d="M1541.06,-575.14C1506.86,-544.4 1437.36,-481.92 1405.26,-453.02"/>
</g>
<!-- 14&#45;&#45;26.0 -->
<g id="edge47" class="edge">
<title>14&#45;&#45;26.0</title>
<path fill="none" stroke="black" d="M1520.66,-576.85C1479.96,-560.52 1418.06,-535.75 1383.46,-521.85"/>
</g>
<!-- 14&#45;&#45;27.0 -->
<g id="edge48" class="edge">
<title>14&#45;&#45;27.0</title>
<path fill="none" stroke="black" d="M1537.46,-575.5C1512.76,-557.07 1474.16,-528.34 1451.06,-511.12"/>
</g>
<!-- 15 -->
<g id="node32" class="node">
<title>15</title>
<ellipse fill="none" stroke="black" cx="1566.16" cy="-419.27" rx="91.78" ry="18"/>
<text text-anchor="middle" x="1566.16" y="-415.57" font-family="Times,serif" font-size="14.00">Already Balanced</text>
</g>
<!-- 15&#45;&#45;21.0 -->
<g id="edge49" class="edge">
<title>15&#45;&#45;21.0</title>
<path fill="none" stroke="black" d="M1485.06,-427.7C1461.56,-430.13 1437.36,-432.64 1419.06,-434.54"/>
</g>
<!-- 15&#45;&#45;26.0 -->
<g id="edge50" class="edge">
<title>15&#45;&#45;26.0</title>
<path fill="none" stroke="black" d="M1528.86,-435.76C1486.56,-454.46 1418.76,-484.43 1382.46,-500.48"/>
</g>
<!-- 15&#45;&#45;27.0 -->
<g id="edge51" class="edge">
<title>15&#45;&#45;27.0</title>
<path fill="none" stroke="black" d="M1536.36,-436.44C1511.36,-450.78 1476.46,-470.89 1453.86,-483.84"/>
</g>
<!-- 15&#45;&#45;18.0 -->
<g id="edge52" class="edge">
<title>15&#45;&#45;18.0</title>
<path fill="none" stroke="black" d="M1547.66,-437.15C1515.66,-467.85 1450.96,-530.1 1420.56,-559.3"/>
</g>
<!-- 15&#45;&#45;25.0 -->
<g id="edge53" class="edge">
<title>15&#45;&#45;25.0</title>
<path fill="none" stroke="black" d="M1560.36,-401.18C1547.96,-363.12 1519.56,-275.17 1507.26,-237.27"/>
</g>
<!-- 16 -->
<g id="node33" class="node">
<title>16</title>
<ellipse fill="none" stroke="black" cx="1234.36" cy="-567.33" rx="76.09" ry="18"/>
<text text-anchor="middle" x="1234.36" y="-563.63" font-family="Times,serif" font-size="14.00">Class Weights</text>
</g>
<!-- 16&#45;&#45;26.0 -->
<g id="edge54" class="edge">
<title>16&#45;&#45;26.0</title>
<path fill="none" stroke="black" d="M1269.66,-551.33C1289.86,-542.17 1314.66,-530.91 1332.76,-522.7"/>
</g>
<!-- 16&#45;&#45;27.0 -->
<g id="edge55" class="edge">
<title>16&#45;&#45;27.0</title>
<path fill="none" stroke="black" d="M1276.66,-552.17C1315.56,-538.21 1372.16,-517.94 1405.16,-506.14"/>
</g>
<!-- 16&#45;&#45;18.0 -->
<g id="edge56" class="edge">
<title>16&#45;&#45;18.0</title>
<path fill="none" stroke="black" d="M1309.26,-570.76C1331.66,-571.79 1355.06,-572.85 1372.96,-573.67"/>
</g>
<!-- 16&#45;&#45;22.0 -->
<g id="edge57" class="edge">
<title>16&#45;&#45;22.0</title>
<path fill="none" stroke="black" d="M1225.96,-549.09C1208.26,-510.5 1167.16,-421.1 1149.86,-383.2"/>
</g>
<!-- 17 -->
<g id="node34" class="node">
<title>17</title>
<ellipse fill="none" stroke="black" cx="1339.16" cy="-289.43" rx="100.18" ry="18"/>
<text text-anchor="middle" x="1339.16" y="-285.73" font-family="Times,serif" font-size="14.00">Explicitly Balanced</text>
</g>
<!-- 17&#45;&#45;20.0 -->
<g id="edge58" class="edge">
<title>17&#45;&#45;20.0</title>
<path fill="none" stroke="black" d="M1276.26,-275.33C1255.06,-270.58 1232.36,-265.5 1215.06,-261.61"/>
</g>
<!-- 17&#45;&#45;19.0 -->
<g id="edge59" class="edge">
<title>17&#45;&#45;19.0</title>
<path fill="none" stroke="black" d="M1281.36,-304.13C1224.66,-318.56 1140.56,-339.97 1096.86,-351.07"/>
</g>
<!-- 17&#45;&#45;21.0 -->
<g id="edge60" class="edge">
<title>17&#45;&#45;21.0</title>
<path fill="none" stroke="black" d="M1345.16,-307.61C1354.66,-336.23 1372.96,-391.44 1382.36,-419.87"/>
</g>
<!-- 17&#45;&#45;26.0 -->
<g id="edge61" class="edge">
<title>17&#45;&#45;26.0</title>
<path fill="none" stroke="black" d="M1340.66,-307.6C1344.16,-349.34 1352.56,-451.68 1356.06,-493.36"/>
</g>
<!-- 17&#45;&#45;27.0 -->
<g id="edge62" class="edge">
<title>17&#45;&#45;27.0</title>
<path fill="none" stroke="black" d="M1347.26,-307.45C1364.76,-346.84 1406.46,-440.15 1423.86,-479.09"/>
</g>
<!-- 17&#45;&#45;25.0 -->
<g id="edge63" class="edge">
<title>17&#45;&#45;25.0</title>
<path fill="none" stroke="black" d="M1378.06,-272.64C1408.46,-259.53 1449.76,-241.67 1476.06,-230.33"/>
</g>
<!-- 17&#45;&#45;22.0 -->
<g id="edge64" class="edge">
<title>17&#45;&#45;22.0</title>
<path fill="none" stroke="black" d="M1296.86,-305.79C1257.66,-320.94 1200.66,-342.98 1167.76,-355.68"/>
</g>
<!-- 18 -->
<g id="node35" class="node">
<title>18</title>
<ellipse fill="none" stroke="black" cx="490.68" cy="-223.22" rx="82.59" ry="18"/>
<text text-anchor="middle" x="490.68" y="-219.52" font-family="Times,serif" font-size="14.00">Label Encoding</text>
</g>
<!-- 40.0 -->
<g id="node36" class="node">
<title>40.0</title>
<ellipse fill="none" stroke="black" cx="624.83" cy="-341.29" rx="31.4" ry="18"/>
<text text-anchor="middle" x="624.83" y="-337.59" font-family="Times,serif" font-size="14.00">40.0</text>
</g>
<!-- 18&#45;&#45;40.0 -->
<g id="edge65" class="edge">
<title>18&#45;&#45;40.0</title>
<path fill="none" stroke="black" d="M510.77,-240.89C537.08,-264.05 582.78,-304.28 607.6,-326.12"/>
</g>
<!-- 35.0 -->
<g id="node37" class="node">
<title>35.0</title>
<ellipse fill="none" stroke="black" cx="451.1" cy="-322.49" rx="31.4" ry="18"/>
<text text-anchor="middle" x="451.1" y="-318.79" font-family="Times,serif" font-size="14.00">35.0</text>
</g>
<!-- 18&#45;&#45;35.0 -->
<g id="edge66" class="edge">
<title>18&#45;&#45;35.0</title>
<path fill="none" stroke="black" d="M483.42,-241.43C476.24,-259.45 465.31,-286.87 458.18,-304.74"/>
</g>
<!-- 42.0 -->
<g id="node38" class="node">
<title>42.0</title>
<ellipse fill="none" stroke="black" cx="543.66" cy="-358.99" rx="31.4" ry="18"/>
<text text-anchor="middle" x="543.66" y="-355.29" font-family="Times,serif" font-size="14.00">42.0</text>
</g>
<!-- 18&#45;&#45;42.0 -->
<g id="edge67" class="edge">
<title>18&#45;&#45;42.0</title>
<path fill="none" stroke="black" d="M497.72,-241.25C507.9,-267.36 526.65,-315.4 536.76,-341.31"/>
</g>
<!-- 41.0 -->
<g id="node39" class="node">
<title>41.0</title>
<ellipse fill="none" stroke="black" cx="564.97" cy="-442.66" rx="31.4" ry="18"/>
<text text-anchor="middle" x="564.97" y="-438.96" font-family="Times,serif" font-size="14.00">41.0</text>
</g>
<!-- 18&#45;&#45;41.0 -->
<g id="edge68" class="edge">
<title>18&#45;&#45;41.0</title>
<path fill="none" stroke="black" d="M496.76,-241.17C510.73,-282.43 544.97,-383.56 558.91,-424.76"/>
</g>
<!-- 36.0 -->
<g id="node40" class="node">
<title>36.0</title>
<ellipse fill="none" stroke="black" cx="364.94" cy="-371.1" rx="31.4" ry="18"/>
<text text-anchor="middle" x="364.94" y="-367.4" font-family="Times,serif" font-size="14.00">36.0</text>
</g>
<!-- 18&#45;&#45;36.0 -->
<g id="edge69" class="edge">
<title>18&#45;&#45;36.0</title>
<path fill="none" stroke="black" d="M475.51,-241.06C450.95,-269.94 402.83,-326.54 379,-354.56"/>
</g>
<!-- 33.0 -->
<g id="node41" class="node">
<title>33.0</title>
<ellipse fill="none" stroke="black" cx="294.12" cy="-320.23" rx="31.4" ry="18"/>
<text text-anchor="middle" x="294.12" y="-316.53" font-family="Times,serif" font-size="14.00">33.0</text>
</g>
<!-- 18&#45;&#45;33.0 -->
<g id="edge70" class="edge">
<title>18&#45;&#45;33.0</title>
<path fill="none" stroke="black" d="M456.89,-239.89C417.27,-259.45 352.6,-291.37 317.9,-308.49"/>
</g>
<!-- 28.0 -->
<g id="node42" class="node">
<title>28.0</title>
<ellipse fill="none" stroke="black" cx="667.04" cy="-389.94" rx="31.4" ry="18"/>
<text text-anchor="middle" x="667.04" y="-386.24" font-family="Times,serif" font-size="14.00">28.0</text>
</g>
<!-- 18&#45;&#45;28.0 -->
<g id="edge71" class="edge">
<title>18&#45;&#45;28.0</title>
<path fill="none" stroke="black" d="M509.55,-241.06C544.3,-273.9 617.82,-343.41 650.63,-374.43"/>
</g>
<!-- 19 -->
<g id="node43" class="node">
<title>19</title>
<ellipse fill="none" stroke="black" cx="561.94" cy="-138.28" rx="67.69" ry="18"/>
<text text-anchor="middle" x="561.94" y="-134.58" font-family="Times,serif" font-size="14.00">NN features</text>
</g>
<!-- 19&#45;&#45;40.0 -->
<g id="edge72" class="edge">
<title>19&#45;&#45;40.0</title>
<path fill="none" stroke="black" d="M567.52,-156.3C579.45,-194.82 607.34,-284.82 619.26,-323.31"/>
</g>
<!-- 19&#45;&#45;35.0 -->
<g id="edge73" class="edge">
<title>19&#45;&#45;35.0</title>
<path fill="none" stroke="black" d="M551.11,-156.28C529.76,-191.77 482.48,-270.35 461.49,-305.23"/>
</g>
<!-- 19&#45;&#45;42.0 -->
<g id="edge74" class="edge">
<title>19&#45;&#45;42.0</title>
<path fill="none" stroke="black" d="M560.44,-156.35C557.01,-197.83 548.58,-299.56 545.15,-340.99"/>
</g>
<!-- 20 -->
<g id="node44" class="node">
<title>20</title>
<ellipse fill="none" stroke="black" cx="755.12" cy="-437.61" rx="52.79" ry="18"/>
<text text-anchor="middle" x="755.12" y="-433.91" font-family="Times,serif" font-size="14.00">Wavelets</text>
</g>
<!-- 20&#45;&#45;40.0 -->
<g id="edge75" class="edge">
<title>20&#45;&#45;40.0</title>
<path fill="none" stroke="black" d="M733.02,-421.27C708.05,-402.8 667.79,-373.05 644.07,-355.51"/>
</g>
<!-- 20&#45;&#45;42.0 -->
<g id="edge76" class="edge">
<title>20&#45;&#45;42.0</title>
<path fill="none" stroke="black" d="M719.25,-424.27C676.95,-408.54 607.64,-382.77 569.99,-368.78"/>
</g>
<!-- 20&#45;&#45;41.0 -->
<g id="edge77" class="edge">
<title>20&#45;&#45;41.0</title>
<path fill="none" stroke="black" d="M702.41,-439.01C668.34,-439.91 625.14,-441.06 596.36,-441.82"/>
</g>
<!-- 20&#45;&#45;28.0 -->
<g id="edge78" class="edge">
<title>20&#45;&#45;28.0</title>
<path fill="none" stroke="black" d="M726.77,-422.26C714.9,-415.84 701.28,-408.47 690.05,-402.39"/>
</g>
<!-- 21 -->
<g id="node45" class="node">
<title>21</title>
<ellipse fill="none" stroke="black" cx="859.27" cy="-225.18" rx="91.78" ry="18"/>
<text text-anchor="middle" x="859.27" y="-221.48" font-family="Times,serif" font-size="14.00">Mel Spectrogram</text>
</g>
<!-- 21&#45;&#45;40.0 -->
<g id="edge79" class="edge">
<title>21&#45;&#45;40.0</title>
<path fill="none" stroke="black" d="M825.44,-241.94C777.38,-265.74 690.55,-308.74 648.68,-329.48"/>
</g>
<!-- 21&#45;&#45;28.0 -->
<g id="edge80" class="edge">
<title>21&#45;&#45;28.0</title>
<path fill="none" stroke="black" d="M838.7,-242.81C800.73,-275.36 720.28,-344.31 684.65,-374.85"/>
</g>
<!-- 22 -->
<g id="node46" class="node">
<title>22</title>
<ellipse fill="none" stroke="black" cx="736.95" cy="-177.25" rx="60" ry="18"/>
<text text-anchor="middle" x="736.95" y="-173.55" font-family="Times,serif" font-size="14.00">Raw Audio</text>
</g>
<!-- 22&#45;&#45;40.0 -->
<g id="edge81" class="edge">
<title>22&#45;&#45;40.0</title>
<path fill="none" stroke="black" d="M724.74,-195.12C702.94,-227 657.64,-293.28 636.36,-324.43"/>
</g>
<!-- 22&#45;&#45;28.0 -->
<g id="edge82" class="edge">
<title>22&#45;&#45;28.0</title>
<path fill="none" stroke="black" d="M730.99,-195.38C717.75,-235.67 686.02,-332.19 672.89,-372.15"/>
</g>
<!-- 23 -->
<g id="node47" class="node">
<title>23</title>
<ellipse fill="none" stroke="black" cx="922.68" cy="-279.15" rx="95.58" ry="18"/>
<text text-anchor="middle" x="922.68" y="-275.45" font-family="Times,serif" font-size="14.00">EGG Spectrogram</text>
</g>
<!-- 23&#45;&#45;40.0 -->
<g id="edge83" class="edge">
<title>23&#45;&#45;40.0</title>
<path fill="none" stroke="black" d="M858.42,-292.55C795.32,-305.72 701.84,-325.22 654.55,-335.09"/>
</g>
<!-- 24 -->
<g id="node48" class="node">
<title>24</title>
<ellipse fill="none" stroke="black" cx="966.75" cy="-476.99" rx="99" ry="18"/>
<text text-anchor="middle" x="966.75" y="-473.29" font-family="Times,serif" font-size="14.00">Bespoke Algorithm</text>
</g>
<!-- 24&#45;&#45;28.0 -->
<g id="edge84" class="edge">
<title>24&#45;&#45;28.0</title>
<path fill="none" stroke="black" d="M914.2,-461.73C850.41,-443.2 745.16,-412.63 695.13,-398.1"/>
</g>
<!-- 25 -->
<g id="node49" class="node">
<title>25</title>
<ellipse fill="none" stroke="black" cx="541.81" cy="-537.13" rx="73.5" ry="18"/>
<text text-anchor="middle" x="541.81" y="-533.43" font-family="Times,serif" font-size="14.00">Glottal signal</text>
</g>
<!-- 25&#45;&#45;40.0 -->
<g id="edge85" class="edge">
<title>25&#45;&#45;40.0</title>
<path fill="none" stroke="black" d="M549.47,-519.05C565.32,-481.65 601.57,-396.15 617.31,-359.03"/>
</g>
<!-- 25&#45;&#45;35.0 -->
<g id="edge86" class="edge">
<title>25&#45;&#45;35.0</title>
<path fill="none" stroke="black" d="M534.23,-519.2C517.11,-478.7 475.63,-380.53 458.6,-340.22"/>
</g>
<!-- 25&#45;&#45;42.0 -->
<g id="edge87" class="edge">
<title>25&#45;&#45;42.0</title>
<path fill="none" stroke="black" d="M541.99,-519.07C542.35,-484.92 543.11,-411.28 543.47,-377.1"/>
</g>
<!-- 25&#45;&#45;41.0 -->
<g id="edge88" class="edge">
<title>25&#45;&#45;41.0</title>
<path fill="none" stroke="black" d="M546.27,-518.91C550.4,-502.08 556.5,-477.21 560.6,-460.49"/>
</g>
<!-- 25&#45;&#45;36.0 -->
<g id="edge89" class="edge">
<title>25&#45;&#45;36.0</title>
<path fill="none" stroke="black" d="M523.21,-519.67C488.53,-487.12 414.52,-417.64 381.47,-386.62"/>
</g>
<!-- 25&#45;&#45;28.0 -->
<g id="edge90" class="edge">
<title>25&#45;&#45;28.0</title>
<path fill="none" stroke="black" d="M556.91,-519.37C581.37,-490.62 629.3,-434.3 653.03,-406.4"/>
</g>
<!-- 38.0 -->
<g id="node50" class="node">
<title>38.0</title>
<ellipse fill="none" stroke="black" cx="473.02" cy="-717.98" rx="31.4" ry="18"/>
<text text-anchor="middle" x="473.02" y="-714.28" font-family="Times,serif" font-size="14.00">38.0</text>
</g>
<!-- 25&#45;&#45;38.0 -->
<g id="edge91" class="edge">
<title>25&#45;&#45;38.0</title>
<path fill="none" stroke="black" d="M534.96,-555.13C521.74,-589.88 492.85,-665.83 479.74,-700.31"/>
</g>
<!-- 30.0 -->
<g id="node51" class="node">
<title>30.0</title>
<ellipse fill="none" stroke="black" cx="401.28" cy="-649.79" rx="31.4" ry="18"/>
<text text-anchor="middle" x="401.28" y="-646.09" font-family="Times,serif" font-size="14.00">30.0</text>
</g>
<!-- 25&#45;&#45;30.0 -->
<g id="edge92" class="edge">
<title>25&#45;&#45;30.0</title>
<path fill="none" stroke="black" d="M520.16,-554.49C492.59,-576.58 445.46,-614.38 419.59,-635.11"/>
</g>
<!-- 39.0 -->
<g id="node52" class="node">
<title>39.0</title>
<ellipse fill="none" stroke="black" cx="348.16" cy="-720.65" rx="31.4" ry="18"/>
<text text-anchor="middle" x="348.16" y="-716.95" font-family="Times,serif" font-size="14.00">39.0</text>
</g>
<!-- 25&#45;&#45;39.0 -->
<g id="edge93" class="edge">
<title>25&#45;&#45;39.0</title>
<path fill="none" stroke="black" d="M523.24,-554.72C485.47,-590.52 400.24,-671.29 364.46,-705.2"/>
</g>
<!-- 26 -->
<g id="node53" class="node">
<title>26</title>
<ellipse fill="none" stroke="black" cx="420.03" cy="-494.9" rx="40.5" ry="18"/>
<text text-anchor="middle" x="420.03" y="-491.2" font-family="Times,serif" font-size="14.00">MFCC</text>
</g>
<!-- 26&#45;&#45;40.0 -->
<g id="edge94" class="edge">
<title>26&#45;&#45;40.0</title>
<path fill="none" stroke="black" d="M440.8,-479.33C480.56,-449.5 566.92,-384.73 605.52,-355.77"/>
</g>
<!-- 26&#45;&#45;35.0 -->
<g id="edge95" class="edge">
<title>26&#45;&#45;35.0</title>
<path fill="none" stroke="black" d="M423.3,-476.78C429.27,-443.67 441.86,-373.76 447.83,-340.64"/>
</g>
<!-- 26&#45;&#45;42.0 -->
<g id="edge96" class="edge">
<title>26&#45;&#45;42.0</title>
<path fill="none" stroke="black" d="M435.44,-477.97C459.39,-451.64 505.24,-401.23 528.83,-375.29"/>
</g>
<!-- 26&#45;&#45;41.0 -->
<g id="edge97" class="edge">
<title>26&#45;&#45;41.0</title>
<path fill="none" stroke="black" d="M451.48,-483.57C477.46,-474.2 513.92,-461.06 538.44,-452.22"/>
</g>
<!-- 26&#45;&#45;36.0 -->
<g id="edge98" class="edge">
<title>26&#45;&#45;36.0</title>
<path fill="none" stroke="black" d="M412.14,-477.17C401.66,-453.63 383.28,-412.33 372.82,-388.81"/>
</g>
<!-- 26&#45;&#45;33.0 -->
<g id="edge99" class="edge">
<title>26&#45;&#45;33.0</title>
<path fill="none" stroke="black" d="M407.5,-477.52C383.24,-443.86 330.15,-370.22 306.23,-337.03"/>
</g>
<!-- 26&#45;&#45;28.0 -->
<g id="edge100" class="edge">
<title>26&#45;&#45;28.0</title>
<path fill="none" stroke="black" d="M449.34,-482.45C498.28,-461.65 595.82,-420.2 641.86,-400.64"/>
</g>
<!-- 26&#45;&#45;38.0 -->
<g id="edge101" class="edge">
<title>26&#45;&#45;38.0</title>
<path fill="none" stroke="black" d="M424.37,-513.16C434.35,-555.2 458.87,-658.42 468.77,-700.09"/>
</g>
<!-- 26&#45;&#45;30.0 -->
<g id="edge102" class="edge">
<title>26&#45;&#45;30.0</title>
<path fill="none" stroke="black" d="M417.84,-512.98C414.25,-542.66 407.13,-601.44 403.51,-631.36"/>
</g>
<!-- 31.0 -->
<g id="node54" class="node">
<title>31.0</title>
<ellipse fill="none" stroke="black" cx="563.08" cy="-696.09" rx="31.4" ry="18"/>
<text text-anchor="middle" x="563.08" y="-692.39" font-family="Times,serif" font-size="14.00">31.0</text>
</g>
<!-- 26&#45;&#45;31.0 -->
<g id="edge103" class="edge">
<title>26&#45;&#45;31.0</title>
<path fill="none" stroke="black" d="M432.48,-512.41C459.73,-550.74 524.41,-641.7 551.17,-679.34"/>
</g>
<!-- 34.0 -->
<g id="node55" class="node">
<title>34.0</title>
<ellipse fill="none" stroke="black" cx="201.23" cy="-573.95" rx="31.4" ry="18"/>
<text text-anchor="middle" x="201.23" y="-570.25" font-family="Times,serif" font-size="14.00">34.0</text>
</g>
<!-- 26&#45;&#45;34.0 -->
<g id="edge104" class="edge">
<title>26&#45;&#45;34.0</title>
<path fill="none" stroke="black" d="M388.68,-506.23C345.43,-521.86 268.23,-549.75 227.72,-564.39"/>
</g>
<!-- 32.0 -->
<g id="node56" class="node">
<title>32.0</title>
<ellipse fill="none" stroke="black" cx="235.8" cy="-648.08" rx="31.4" ry="18"/>
<text text-anchor="middle" x="235.8" y="-644.38" font-family="Times,serif" font-size="14.00">32.0</text>
</g>
<!-- 26&#45;&#45;32.0 -->
<g id="edge105" class="edge">
<title>26&#45;&#45;32.0</title>
<path fill="none" stroke="black" d="M400.66,-511.01C364.82,-540.81 288.62,-604.16 253.82,-633.09"/>
</g>
<!-- 37.0 -->
<g id="node57" class="node">
<title>37.0</title>
<ellipse fill="none" stroke="black" cx="193.94" cy="-480.23" rx="31.4" ry="18"/>
<text text-anchor="middle" x="193.94" y="-476.53" font-family="Times,serif" font-size="14.00">37.0</text>
</g>
<!-- 26&#45;&#45;37.0 -->
<g id="edge106" class="edge">
<title>26&#45;&#45;37.0</title>
<path fill="none" stroke="black" d="M380.13,-492.32C335.89,-489.44 265.45,-484.87 225.08,-482.25"/>
</g>
<!-- 27 -->
<g id="node58" class="node">
<title>27</title>
<ellipse fill="none" stroke="black" cx="444.87" cy="-599.79" rx="160.57" ry="18"/>
<text text-anchor="middle" x="444.87" y="-596.09" font-family="Times,serif" font-size="14.00">Other audio processing features</text>
</g>
<!-- 27&#45;&#45;40.0 -->
<g id="edge107" class="edge">
<title>27&#45;&#45;40.0</title>
<path fill="none" stroke="black" d="M457.53,-581.62C490.89,-533.69 580.89,-404.41 613.14,-358.09"/>
</g>
<!-- 27&#45;&#45;35.0 -->
<g id="edge108" class="edge">
<title>27&#45;&#45;35.0</title>
<path fill="none" stroke="black" d="M445.28,-581.6C446.41,-531.35 449.56,-391.08 450.69,-340.76"/>
</g>
<!-- 27&#45;&#45;42.0 -->
<g id="edge109" class="edge">
<title>27&#45;&#45;42.0</title>
<path fill="none" stroke="black" d="M452.3,-581.69C470.69,-536.85 518.21,-421.01 536.41,-376.64"/>
</g>
<!-- 27&#45;&#45;41.0 -->
<g id="edge110" class="edge">
<title>27&#45;&#45;41.0</title>
<path fill="none" stroke="black" d="M458.65,-581.77C482.06,-551.13 529.29,-489.34 552.09,-459.52"/>
</g>
<!-- 27&#45;&#45;36.0 -->
<g id="edge111" class="edge">
<title>27&#45;&#45;36.0</title>
<path fill="none" stroke="black" d="M438.47,-581.47C423.43,-538.43 386,-431.37 371.15,-388.89"/>
</g>
<!-- 27&#45;&#45;33.0 -->
<g id="edge112" class="edge">
<title>27&#45;&#45;33.0</title>
<path fill="none" stroke="black" d="M434.98,-581.45C407.47,-530.43 330.31,-387.34 303.47,-337.56"/>
</g>
<!-- 27&#45;&#45;28.0 -->
<g id="edge113" class="edge">
<title>27&#45;&#45;28.0</title>
<path fill="none" stroke="black" d="M463.81,-581.9C506.63,-541.46 610.26,-443.58 650.59,-405.48"/>
</g>
<!-- 27&#45;&#45;38.0 -->
<g id="edge114" class="edge">
<title>27&#45;&#45;38.0</title>
<path fill="none" stroke="black" d="M449.21,-618C454.51,-640.27 463.44,-677.75 468.73,-699.94"/>
</g>
<!-- 27&#45;&#45;30.0 -->
<g id="edge115" class="edge">
<title>27&#45;&#45;30.0</title>
<path fill="none" stroke="black" d="M429.13,-617.85C424.65,-622.99 419.79,-628.57 415.4,-633.6"/>
</g>
<!-- 27&#45;&#45;31.0 -->
<g id="edge116" class="edge">
<title>27&#45;&#45;31.0</title>
<path fill="none" stroke="black" d="M466.83,-617.68C489.26,-635.96 523.71,-664.01 544.73,-681.14"/>
</g>
<!-- 27&#45;&#45;34.0 -->
<g id="edge117" class="edge">
<title>27&#45;&#45;34.0</title>
<path fill="none" stroke="black" d="M328.05,-587.4C292.63,-583.65 256.65,-579.83 232.11,-577.23"/>
</g>
<!-- 27&#45;&#45;32.0 -->
<g id="edge118" class="edge">
<title>27&#45;&#45;32.0</title>
<path fill="none" stroke="black" d="M374.67,-616.01C337.19,-624.66 293.07,-634.85 264.79,-641.38"/>
</g>
<!-- 27&#45;&#45;37.0 -->
<g id="edge119" class="edge">
<title>27&#45;&#45;37.0</title>
<path fill="none" stroke="black" d="M407.85,-582.15C355.77,-557.34 262.33,-512.82 218.23,-491.81"/>
</g>
<!-- 28 -->
<g id="node59" class="node">
<title>28</title>
<ellipse fill="none" stroke="black" cx="329.87" cy="-450.61" rx="93" ry="18"/>
<text text-anchor="middle" x="329.87" y="-446.91" font-family="Times,serif" font-size="14.00">Feature Selection</text>
</g>
<!-- 28&#45;&#45;40.0 -->
<g id="edge120" class="edge">
<title>28&#45;&#45;40.0</title>
<path fill="none" stroke="black" d="M373.07,-434.6C435,-411.65 547.15,-370.08 598.22,-351.15"/>
</g>
<!-- 28&#45;&#45;35.0 -->
<g id="edge121" class="edge">
<title>28&#45;&#45;35.0</title>
<path fill="none" stroke="black" d="M346.73,-432.8C370.41,-407.77 413.17,-362.58 435.92,-338.54"/>
</g>
<!-- 28&#45;&#45;42.0 -->
<g id="edge122" class="edge">
<title>28&#45;&#45;42.0</title>
<path fill="none" stroke="black" d="M368.58,-434.02C412.14,-415.35 481.62,-385.57 518.6,-369.73"/>
</g>
<!-- 28&#45;&#45;41.0 -->
<g id="edge123" class="edge">
<title>28&#45;&#45;41.0</title>
<path fill="none" stroke="black" d="M421.44,-447.51C461.15,-446.17 505.03,-444.68 533.69,-443.71"/>
</g>
<!-- 28&#45;&#45;36.0 -->
<g id="edge124" class="edge">
<title>28&#45;&#45;36.0</title>
<path fill="none" stroke="black" d="M337.83,-432.57C343.61,-419.47 351.39,-401.82 357.13,-388.8"/>
</g>
<!-- 28&#45;&#45;33.0 -->
<g id="edge125" class="edge">
<title>28&#45;&#45;33.0</title>
<path fill="none" stroke="black" d="M324.9,-432.48C318.07,-407.57 305.86,-363.03 299.05,-338.2"/>
</g>
<!-- 28&#45;&#45;30.0 -->
<g id="edge126" class="edge">
<title>28&#45;&#45;30.0</title>
<path fill="none" stroke="black" d="M336.33,-468.64C349.93,-506.56 381.34,-594.19 394.88,-631.95"/>
</g>
<!-- 28&#45;&#45;39.0 -->
<g id="edge127" class="edge">
<title>28&#45;&#45;39.0</title>
<path fill="none" stroke="black" d="M331.1,-468.75C334.43,-517.94 343.61,-653.49 346.93,-702.59"/>
</g>
<!-- 28&#45;&#45;34.0 -->
<g id="edge128" class="edge">
<title>28&#45;&#45;34.0</title>
<path fill="none" stroke="black" d="M311.44,-468.29C286.29,-492.4 241.61,-535.24 217.59,-558.27"/>
</g>
<!-- 28&#45;&#45;32.0 -->
<g id="edge129" class="edge">
<title>28&#45;&#45;32.0</title>
<path fill="none" stroke="black" d="M321.19,-468.84C303.18,-506.64 261.95,-593.19 244.19,-630.46"/>
</g>
<!-- 28&#45;&#45;37.0 -->
<g id="edge130" class="edge">
<title>28&#45;&#45;37.0</title>
<path fill="none" stroke="black" d="M267.87,-464.12C252.33,-467.51 236.36,-470.99 223.26,-473.84"/>
</g>
<!-- 29.0 -->
<g id="node60" class="node">
<title>29.0</title>
<ellipse fill="none" stroke="black" cx="31.2" cy="-364.46" rx="31.4" ry="18"/>
<text text-anchor="middle" x="31.2" y="-360.76" font-family="Times,serif" font-size="14.00">29.0</text>
</g>
<!-- 28&#45;&#45;29.0 -->
<g id="edge131" class="edge">
<title>28&#45;&#45;29.0</title>
<path fill="none" stroke="black" d="M277.84,-435.61C214.33,-417.29 109.23,-386.97 59.26,-372.55"/>
</g>
<!-- 29 -->
<g id="node61" class="node">
<title>29</title>
<ellipse fill="none" stroke="black" cx="287.7" cy="-218" rx="87.18" ry="18"/>
<text text-anchor="middle" x="287.7" y="-214.3" font-family="Times,serif" font-size="14.00">Voting Classifier</text>
</g>
<!-- 30 -->
<g id="node62" class="node">
<title>30</title>
<ellipse fill="none" stroke="black" cx="1164.26" cy="-1054.96" rx="27" ry="18"/>
<text text-anchor="middle" x="1164.26" y="-1051.26" font-family="Times,serif" font-size="14.00">RF</text>
</g>
<!-- 43.0 -->
<g id="node63" class="node">
<title>43.0</title>
<ellipse fill="none" stroke="black" cx="1279.06" cy="-1106.46" rx="31.4" ry="18"/>
<text text-anchor="middle" x="1279.06" y="-1102.76" font-family="Times,serif" font-size="14.00">43.0</text>
</g>
<!-- 30&#45;&#45;43.0 -->
<g id="edge132" class="edge">
<title>30&#45;&#45;43.0</title>
<path fill="none" stroke="black" d="M1186.66,-1064.96C1206.06,-1073.76 1234.26,-1086.36 1254.36,-1095.36"/>
</g>
<!-- 31 -->
<g id="node64" class="node">
<title>31</title>
<ellipse fill="none" stroke="black" cx="1495.16" cy="-1005.56" rx="134.58" ry="18"/>
<text text-anchor="middle" x="1495.16" y="-1001.86" font-family="Times,serif" font-size="14.00">Linear/Logistic Regression</text>
</g>
<!-- 31&#45;&#45;43.0 -->
<g id="edge133" class="edge">
<title>31&#45;&#45;43.0</title>
<path fill="none" stroke="black" d="M1458.06,-1022.96C1413.76,-1043.56 1340.96,-1077.56 1303.36,-1095.16"/>
</g>
<!-- 32 -->
<g id="node65" class="node">
<title>32</title>
<ellipse fill="none" stroke="black" cx="188.7" cy="-858" rx="68.49" ry="18"/>
<text text-anchor="middle" x="188.7" y="-854.3" font-family="Times,serif" font-size="14.00">Naïve Bayes</text>
</g>
<!-- 33 -->
<g id="node66" class="node">
<title>33</title>
<ellipse fill="none" stroke="black" cx="189.7" cy="-738" rx="69.59" ry="18"/>
<text text-anchor="middle" x="189.7" y="-734.3" font-family="Times,serif" font-size="14.00">PCA/LDA/DA</text>
</g>
<!-- 34 -->
<g id="node67" class="node">
<title>34</title>
<ellipse fill="none" stroke="black" cx="916.7" cy="-378" rx="36.5" ry="18"/>
<text text-anchor="middle" x="916.7" y="-374.3" font-family="Times,serif" font-size="14.00">GMM</text>
</g>
<!-- 35 -->
<g id="node68" class="node">
<title>35</title>
<ellipse fill="none" stroke="black" cx="1286.66" cy="-1156.96" rx="115.08" ry="18"/>
<text text-anchor="middle" x="1286.66" y="-1153.26" font-family="Times,serif" font-size="14.00">ANN (simple NN arch)</text>
</g>
<!-- 35&#45;&#45;43.0 -->
<g id="edge134" class="edge">
<title>35&#45;&#45;43.0</title>
<path fill="none" stroke="black" d="M1283.86,-1138.76C1283.26,-1134.16 1282.46,-1129.16 1281.76,-1124.46"/>
</g>
<!-- 36 -->
<g id="node69" class="node">
<title>36</title>
<ellipse fill="none" stroke="black" cx="399.7" cy="-818" rx="79.5" ry="18"/>
<text text-anchor="middle" x="399.7" y="-814.3" font-family="Times,serif" font-size="14.00">Decision Trees</text>
</g>
<!-- 37 -->
<g id="node70" class="node">
<title>37</title>
<ellipse fill="none" stroke="black" cx="255.7" cy="-98" rx="95.58" ry="18"/>
<text text-anchor="middle" x="255.7" y="-94.3" font-family="Times,serif" font-size="14.00">Gradient Boosting</text>
</g>
<!-- 38 -->
<g id="node71" class="node">
<title>38</title>
<ellipse fill="none" stroke="black" cx="197.7" cy="-338" rx="37.09" ry="18"/>
<text text-anchor="middle" x="197.7" y="-334.3" font-family="Times,serif" font-size="14.00">HMM</text>
</g>
<!-- 39 -->
<g id="node72" class="node">
<title>39</title>
<ellipse fill="none" stroke="black" cx="578.7" cy="-18" rx="58.5" ry="18"/>
<text text-anchor="middle" x="578.7" y="-14.3" font-family="Times,serif" font-size="14.00">Bayes Net</text>
</g>
<!-- 40 -->
<g id="node73" class="node">
<title>40</title>
<ellipse fill="none" stroke="black" cx="1496.26" cy="-1201.06" rx="124.28" ry="18"/>
<text text-anchor="middle" x="1496.26" y="-1197.36" font-family="Times,serif" font-size="14.00">DNN (complex NN arch)</text>
</g>
<!-- 40&#45;&#45;43.0 -->
<g id="edge135" class="edge">
<title>40&#45;&#45;43.0</title>
<path fill="none" stroke="black" d="M1456.96,-1183.96C1412.56,-1164.66 1341.76,-1133.76 1304.26,-1117.46"/>
</g>
<!-- 41 -->
<g id="node74" class="node">
<title>41</title>
<ellipse fill="none" stroke="black" cx="1123.36" cy="-1216.06" rx="83.39" ry="18"/>
<text text-anchor="middle" x="1123.36" y="-1212.36" font-family="Times,serif" font-size="14.00">kNN/Clustering</text>
</g>
<!-- 41&#45;&#45;43.0 -->
<g id="edge136" class="edge">
<title>41&#45;&#45;43.0</title>
<path fill="none" stroke="black" d="M1147.96,-1198.66C1178.76,-1177.06 1230.56,-1140.56 1258.96,-1120.56"/>
</g>
<!-- 42 -->
<g id="node75" class="node">
<title>42</title>
<ellipse fill="none" stroke="black" cx="1285.06" cy="-978.66" rx="32.5" ry="18"/>
<text text-anchor="middle" x="1285.06" y="-974.96" font-family="Times,serif" font-size="14.00">SVM</text>
</g>
<!-- 42&#45;&#45;43.0 -->
<g id="edge137" class="edge">
<title>42&#45;&#45;43.0</title>
<path fill="none" stroke="black" d="M1284.26,-996.7C1283.06,-1020.96 1281.06,-1063.76 1279.96,-1088.06"/>
</g>
<!-- 43 -->
<g id="node76" class="node">
<title>43</title>
<ellipse fill="none" stroke="black" cx="937.7" cy="-138" rx="97.5" ry="18"/>
<text text-anchor="middle" x="937.7" y="-134.3" font-family="Times,serif" font-size="14.00">Model Ensembling</text>
</g>
</g>
</svg>
